# xmcd
#
# Track frame offsets:
#	150
#	21174
#	38525
#	73704
#	98590
#	117349
#	143121
#	165602
#	186432
#	206394
#	224117
#	243477
#	265726
#	282904
#	298573
#	320642
#	339819
#
# Disc length: 4749 seconds
#
# Revision: 6
# Processed by: cddbd v1.5.2PL0 Copyright (c) Steve Scherf et al.
# Submitted via: audiograbber 1.83.01
#
DISCID=02128b11
DTITLE=Various Artist - AUDIO's Audiophile Vol. 10 - Power Of Pop [24-Karat-Ec
DTITLE=htgold-CD]
DYEAR=1999
DGENRE=Misc
TTITLE0=Tower Of Power - Diggin' On James Brown
TTITLE1=Loverboy - Lucky Ones
TTITLE2=Boston - Foreplay - Long Time
TTITLE3=Toto - Rosanna
TTITLE4=Patricia Kaas - Bessie
TTITLE5=Fiona Apple - Criminal
TTITLE6=Indigo Girls - Bury My Heart At Wounded Knee
TTITLE7=Mary Chapin Carpenter - Almost Home
TTITLE8=Eleanor McEvoy - Precious Little
TTITLE9=Cosa Rosa - Puppe kaputt
TTITLE10=Spin Doctors - Two Princes
TTITLE11=Living Colour - Pride
TTITLE12=Primal Scream - Movin' On Up
TTITLE13=Stoppok - Ja genau
TTITLE14=Jamiroquai - If I Like It, I Do It
TTITLE15=Bill Withers - Lovely Day
TTITLE16=Beverley Craven - Promise Me
EXTD=
EXTT0=
EXTT1=
EXTT2=
EXTT3=
EXTT4=
EXTT5=
EXTT6=
EXTT7=
EXTT8=
EXTT9=
EXTT10=
EXTT11=
EXTT12=
EXTT13=
EXTT14=
EXTT15=
EXTT16=
PLAYORDER=
